# xmcd
# 
# Track frame offsets:
#   150
#   15044
#   29518
#   45429
#   62143
#   73930
#   91783
#   108008
#   123792
#   137754
#   154956
#   172503
#   189137
#   207459
# 
# Disc length: 2958 seconds
# 
# Revision: 0
# Processed by: cddbd v1.5.1PL2 Copyright (c) Steve Scherf et al.
# Submitted via: Synapstar 1.0 
# 
DISCID=a70b8c0e
DTITLE=Various Artist - sd star disc
DYEAR=1900
DGENRE=Country
TTITLE0=chad brock - the visit
TTITLE1=clay davidson - i can't lie to me
TTITLE2=shania twain - i'm holdin' on to love
TTITLE3=brad paisley - we danced
TTITLE4=steve wariner w/garth brooks - katie want's a fast one
TTITLE5=yankee grey - this time around
TTITLE6=sara evans - born to fly
TTITLE7=ty herndon - a love like that
TTITLE8=kenny rogers - he will, she knows
TTITLE9=billy ray cyrus - you won't be lonely now
TTITLE10=wynonna - going nowhere
TTITLE11=tammy cochran - if you can
TTITLE12=travis tritt - best of intentions
TTITLE13=kathy mattea - bfd
EXTD=MediaType: Karaoke CD+G Producer: StarDisc
EXTT0=
EXTT1=
EXTT2=
EXTT3=
EXTT4=
EXTT5=
EXTT6=
EXTT7=
EXTT8=
EXTT9=
EXTT10=
EXTT11=
EXTT12=
EXTT13=
PLAYORDER=
